<?xml version="1.0" standalone="no"?>
<!DOCTYPE svg PUBLIC "-//W3C//DTD SVG 20010904//EN"
 "http://www.w3.org/TR/2001/REC-SVG-20010904/DTD/svg10.dtd">
<svg id="crab" version="1.0" xmlns="http://www.w3.org/2000/svg"
 width="240.000000pt" height="200.000000pt" viewBox="0 0 250.000000 202.000000"
 preserveAspectRatio="xMidYMid meet">

<g transform="translate(0.000000,202.000000) scale(0.100000,-0.100000)"
fill="#000000" stroke="none">
<path d="M507 1920 c-63 -68 -85 -121 -96 -236 -15 -159 20 -278 105 -352 26
-24 50 -56 58 -80 21 -57 50 -94 102 -127 30 -19 44 -35 44 -49 0 -27 18 -46
43 -46 16 0 19 -5 13 -31 -3 -17 -6 -38 -6 -45 0 -22 -11 -17 -90 42 -49 36
-81 53 -94 50 -13 -3 -43 16 -99 65 -131 113 -194 148 -212 119 -4 -6 -15 -8
-26 -5 -15 5 -39 -12 -101 -72 -44 -43 -87 -92 -94 -110 -16 -38 -19 -112 -4
-114 6 -1 14 -2 19 -3 5 -1 29 26 53 59 54 73 121 135 146 135 11 0 27 -9 38
-21 25 -27 129 -101 180 -127 22 -11 47 -28 55 -38 22 -27 109 -79 169 -101
47 -18 56 -25 61 -53 8 -37 18 -36 -134 -4 -72 15 -89 16 -96 5 -7 -10 -27 -7
-102 17 -52 17 -115 33 -141 37 -44 7 -49 5 -84 -29 -35 -34 -67 -104 -99
-218 -11 -39 -11 -56 -1 -90 16 -56 46 -60 59 -8 25 97 49 168 66 197 l20 31
60 -19 c34 -10 91 -21 128 -24 38 -4 78 -11 89 -17 13 -6 72 -9 143 -7 l121 4
10 -34 c5 -19 8 -36 6 -38 -2 -2 -61 0 -132 5 l-129 9 -68 -45 c-37 -25 -94
-70 -126 -99 -49 -44 -59 -59 -64 -95 -6 -40 10 -152 33 -238 12 -45 62 -95
86 -86 18 7 18 9 -15 121 -12 38 -21 93 -21 121 0 45 3 54 28 70 15 9 54 43
87 75 l60 57 45 -8 c66 -13 149 -12 206 3 49 13 52 12 73 -11 11 -13 21 -26
21 -29 0 -2 -31 -3 -68 -2 -69 3 -69 3 -138 -48 -85 -63 -100 -79 -107 -120
-12 -63 33 -233 61 -233 24 0 30 24 16 70 -8 26 -15 66 -16 89 -1 39 2 45 68
105 58 54 72 62 88 54 12 -7 56 -8 110 -5 76 5 99 3 150 -15 88 -31 294 -31
382 0 52 18 75 21 142 15 45 -3 92 -1 108 4 27 10 34 6 97 -52 63 -60 67 -65
67 -108 0 -24 -7 -64 -15 -87 -11 -32 -12 -46 -4 -56 18 -21 47 1 58 44 31
122 34 187 8 220 -5 7 -44 38 -85 69 l-76 57 -68 -3 c-37 -1 -68 1 -68 5 0 4
9 17 20 29 20 21 23 21 72 8 60 -15 142 -16 208 -3 33 6 48 5 55 -4 10 -12
103 -96 145 -130 21 -17 22 -24 17 -85 -3 -36 -16 -94 -27 -129 -33 -94 -14
-119 44 -59 29 29 35 44 53 147 29 158 25 178 -48 243 -75 69 -195 151 -207
143 -15 -9 -252 -16 -252 -7 0 4 5 21 10 37 l10 29 128 1 c143 1 265 16 353
44 l60 18 20 -31 c17 -29 41 -100 66 -197 18 -71 65 -35 65 51 1 58 -68 228
-108 267 -33 32 -38 34 -82 27 -26 -4 -90 -20 -142 -37 -62 -20 -95 -27 -98
-19 -5 16 -31 14 -138 -11 -52 -12 -96 -19 -99 -17 -2 3 -1 18 3 34 6 20 18
32 43 40 61 22 139 65 177 99 20 18 60 45 87 60 28 15 80 51 118 81 37 30 74
55 82 55 23 0 102 -77 147 -142 21 -32 42 -58 46 -58 32 0 42 67 18 123 -18
43 -170 189 -193 186 -10 -1 -27 2 -37 6 -28 12 -86 -22 -193 -115 -65 -56
-97 -77 -110 -74 -13 4 -44 -13 -94 -50 -41 -31 -76 -56 -79 -56 -3 0 -10 20
-16 45 -10 42 -9 45 11 45 27 0 45 18 45 47 0 15 10 28 29 37 42 22 110 103
117 140 4 22 21 46 54 74 29 25 60 65 77 99 27 55 28 65 28 198 0 133 -2 143
-28 201 -17 36 -49 81 -79 110 l-50 49 6 -57 c5 -36 3 -58 -3 -63 -7 -3 -9
-21 -5 -43 5 -31 2 -41 -20 -61 -21 -20 -25 -31 -20 -57 4 -25 1 -36 -17 -53
-13 -11 -28 -21 -34 -21 -22 0 -55 125 -55 205 0 40 -5 77 -10 80 -14 8 -56
-89 -65 -147 -5 -33 -2 -63 11 -105 10 -32 17 -72 15 -90 -3 -39 27 -109 74
-173 19 -26 35 -50 35 -54 0 -3 -18 -13 -40 -22 -29 -12 -46 -27 -61 -55 -14
-28 -26 -39 -42 -39 -12 0 -49 -14 -82 -30 -59 -29 -61 -29 -102 -13 -47 17
-54 32 -23 51 30 18 27 77 -4 97 -29 19 -72 11 -86 -15 -17 -32 -11 -60 18
-86 l27 -26 -50 9 c-64 10 -236 10 -300 0 l-50 -9 28 26 c30 28 35 66 12 90
-43 43 -105 20 -105 -39 0 -24 6 -39 20 -47 31 -19 24 -34 -22 -51 -42 -16
-44 -16 -103 13 -33 16 -69 30 -81 30 -13 0 -30 14 -45 38 -13 20 -39 44 -57
54 -19 9 -36 18 -39 21 -2 3 14 32 36 65 52 76 72 123 70 170 0 20 7 64 16 97
14 49 15 68 6 110 -16 67 -48 138 -61 130 -5 -3 -10 -40 -10 -80 0 -84 -33
-205 -56 -205 -8 0 -23 9 -35 21 -16 16 -19 28 -15 53 5 26 1 37 -20 57 -22
20 -25 30 -20 61 4 22 2 39 -5 44 -7 4 -9 25 -4 60 3 30 4 54 2 54 -3 0 -30
-27 -60 -60z m548 -625 c0 -30 -39 -27 -43 3 -3 20 0 23 20 20 15 -2 23 -10
23 -23z m419 16 c10 -16 -6 -42 -23 -39 -9 2 -17 13 -19 26 -3 16 2 22 17 22
11 0 22 -4 25 -9z"/>
</g>
</svg>
