<?xml version="1.0" standalone="no"?>
<!DOCTYPE svg PUBLIC "-//W3C//DTD SVG 20010904//EN"
 "http://www.w3.org/TR/2001/REC-SVG-20010904/DTD/svg10.dtd">
<svg id="sand" version="1.0" xmlns="http://www.w3.org/2000/svg"
 width="230.000000pt" height="230.000000pt" viewBox="0 0 225.000000 225.000000"
 preserveAspectRatio="xMidYMid meet">

<g transform="translate(0.000000,225.000000) scale(0.100000,-0.100000)"
fill="#000000" stroke="none">
<path d="M1003 1623 c-22 -16 -104 -88 -181 -161 -232 -222 -470 -383 -645
-438 -65 -20 -110 -55 -105 -81 4 -22 61 -61 107 -72 20 -5 86 -16 146 -26 76
-11 156 -33 258 -70 201 -74 236 -79 477 -79 231 1 393 17 695 69 252 43 380
80 408 117 40 54 4 106 -122 172 -67 36 -92 55 -102 77 -16 39 -41 55 -194
125 -154 70 -239 123 -397 251 -182 145 -262 172 -345 116z m285 -180 c180
-146 282 -206 520 -311 28 -13 52 -29 52 -36 0 -28 42 -64 129 -111 50 -27 91
-54 91 -59 0 -5 -50 -7 -122 -3 -148 7 -275 39 -387 97 -180 94 -283 213 -399
463 -38 83 -35 81 116 -40z m-190 -367 c-4 -26 -37 -28 -52 -3 -9 15 -7 21 8
32 24 18 48 2 44 -29z m-103 -96 c0 -18 -6 -26 -23 -28 -24 -4 -38 18 -28 44
3 9 15 14 28 12 17 -2 23 -10 23 -28z m178 -41 c15 -24 1 -49 -26 -49 -35 0
-52 23 -37 50 13 24 47 24 63 -1z"/>
<path d="M402 768 c-18 -18 -14 -46 9 -58 26 -14 49 3 49 35 0 32 -35 46 -58
23z"/>
<path d="M556 707 c-22 -16 -18 -55 7 -71 39 -24 79 44 41 71 -10 7 -21 13
-24 13 -3 0 -14 -6 -24 -13z"/>
<path d="M1867 714 c-13 -13 -7 -52 8 -58 27 -10 46 5 43 33 -3 26 -35 41 -51
25z"/>
<path d="M225 670 c-3 -5 -3 -19 0 -31 10 -31 60 -23 60 11 0 20 -6 26 -27 28
-14 2 -29 -2 -33 -8z"/>
</g>
</svg>
